<?xml version="1.0" encoding="UTF-8"?>
<svg version="1.1" xmlns="http://www.w3.org/2000/svg" width="256" height="256">
<path d="M0 0 C0.68359375 1.72526042 1.3671875 3.45052083 2.05078125 5.17578125 C2.89650101 7.09641601 2.89650101 7.09641601 4.640625 8.33203125 C6 10 6 10 5.93359375 12.8984375 C5.76988281 14.04570313 5.60617188 15.19296875 5.4375 16.375 C4.74544933 23.86314381 5.45972524 30.27347795 9 37 C12.01143435 39.68410453 15.14166901 39.98283338 19.125 40.0625 C22 41 22 41 23.2734375 43.10546875 C24.10368351 44.89552144 24.91572987 46.69410911 25.7109375 48.5 C26.97877155 50.95882966 27.94464941 52.11742222 30.125 53.75 C33 56 33 56 34.4375 59 C36.04476478 62.08594837 36.75317588 62.6744468 39.5625 64.4375 C42.41089727 66.33442418 42.98332582 66.96387261 44.5 70.25 C45.53918459 78.04388445 44.5056547 82.52312137 40 89 C39.855625 90.19625 39.71125 91.3925 39.5625 92.625 C39 96 39 96 37.0625 98.125 C29.17966242 102.95122709 22.22661939 105.8247462 13 107 C12.65474368 111.02789619 12.65474368 111.02789619 13 115 C13.825 115.78375 14.65 116.5675 15.5 117.375 C18.30933417 120.32480088 18.42864089 121.03230596 18.5625 124.9375 C18.33056146 129.69575419 16.83921045 132.15871527 14 136 C13.70580842 137.34525785 13.45786635 138.70122892 13.25 140.0625 C12.70410104 142.7919948 12.43206753 143.7030647 10.1015625 145.3046875 C9.36679688 145.67851562 8.63203125 146.05234375 7.875 146.4375 C5.6896134 147.48802385 5.6896134 147.48802385 4 149 C3.49440687 151.49309717 3.60094628 153.49409508 3.9140625 156.01171875 C3.94242188 156.66785156 3.97078125 157.32398438 4 158 C3.34 158.66 2.68 159.32 2 160 C-0.375 159.9375 -0.375 159.9375 -3 159 C-5 156.75 -5 156.75 -7 154 C-9.08234722 151.20333568 -9.08234722 151.20333568 -12 149 C-14.84197457 148.74140838 -16.94201137 148.76479196 -19.71875 149.09765625 C-20.47660797 149.16594131 -21.23446594 149.23422638 -22.01528931 149.30458069 C-23.65422793 149.45501502 -25.29209153 149.61754821 -26.92877197 149.79083252 C-30.42886182 150.16064048 -33.93349063 150.47074393 -37.43899536 150.78430176 C-39.25605435 150.94729532 -41.0728487 151.11326464 -42.88937378 151.28210449 C-51.95724091 152.11838906 -61.0314901 152.66045764 -70.125 153.125 C-70.88759125 153.16478973 -71.6501825 153.20457947 -72.43588257 153.24557495 C-113.51561745 155.37914104 -113.51561745 155.37914104 -130.44628906 155.04150391 C-133.17085542 154.99722319 -135.89517099 154.98218226 -138.62002563 154.96630859 C-141.44871007 154.94318865 -144.27673779 154.89650945 -147.1050415 154.84539795 C-148.52563326 154.82360986 -149.94637657 154.81003065 -151.36712646 154.80499268 C-153.37520338 154.79571381 -155.38302917 154.75195335 -157.390625 154.70703125 C-158.56657227 154.6913208 -159.74251953 154.67561035 -160.95410156 154.65942383 C-164 154 -164 154 -166.39086914 151.64208984 C-168.36347294 148.40320071 -168.38441841 146.57226783 -168.1875 142.8125 C-167.87772332 132.17286253 -167.8532209 116.12102706 -174 107 C-175.485 106.505 -175.485 106.505 -177 106 C-176.95359375 105.24976563 -176.9071875 104.49953125 -176.859375 103.7265625 C-176.59879523 96.33726466 -177.42972589 90.54115914 -181 84 C-181.66 83.34 -182.32 82.68 -183 82 C-184.01965427 79.67518826 -185.02059602 77.34205301 -186 75 C-186.33 74.67 -186.66 74.34 -187 74 C-188.57846031 68.63093061 -189.23733045 63.57726547 -189 58 C-189.99 58 -190.98 58 -192 58 C-192.19335938 57.44570312 -192.38671875 56.89140625 -192.5859375 56.3203125 C-192.84632813 55.59585938 -193.10671875 54.87140625 -193.375 54.125 C-193.63023437 53.40570313 -193.88546875 52.68640625 -194.1484375 51.9453125 C-194.93877783 49.81842006 -194.93877783 49.81842006 -197 48 C-197.39780687 44.49929952 -197.24000883 42.46910818 -195.625 39.3125 C-193.42207949 34.82193126 -192.07894022 30.02849221 -192 25 C-192.96957721 23.97047582 -193.97055137 22.96965742 -195 22 C-195.2578125 19.7734375 -195.2578125 19.7734375 -195.125 17.375 C-195.05426153 15.91778749 -195.00581242 14.45891687 -195 13 C-195.33 12.67 -195.66 12.34 -196 12 C-196.04080783 10.00041636 -196.04254356 7.99954746 -196 6 C-194.85633469 5.98382629 -193.71266937 5.96765259 -192.53434753 5.95098877 C-177.75169493 5.7395613 -162.96949707 5.50306586 -148.1875 5.25 C-146.99852993 5.22966957 -145.80955986 5.20933914 -144.58456039 5.18839264 C-102.25425881 4.45600983 -60.00910306 2.94637889 -17.74050903 0.55874634 C-16.71984581 0.50196779 -16.71984581 0.50196779 -15.67856312 0.44404221 C-13.87878989 0.34365421 -12.07913665 0.24112114 -10.27949524 0.13839722 C-6.84915334 -0.00636584 -3.43298065 -0.02337386 0 0 Z " fill="#1A1363" transform="translate(205,49)"/>
</svg>
